G75*
%MOIN*%
%OFA0B0*%
%FSLAX25Y25*%
%IPPOS*%
%LPD*%
%AMOC8*
5,1,8,0,0,1.08239X$1,22.5*
%
%ADD10C,0.00000*%
%ADD11C,0.00600*%
%ADD12OC8,0.06300*%
%ADD13C,0.06300*%
%ADD14OC8,0.06362*%
%ADD15OC8,0.05562*%
%ADD16C,0.01600*%
D10*
X0001000Y0001000D02*
X0001000Y0120951D01*
X0180921Y0120951D01*
X0180921Y0001000D01*
X0001000Y0001000D01*
D11*
X0138499Y0093800D02*
X0138499Y0097003D01*
X0139567Y0098070D01*
X0140634Y0097003D01*
X0140634Y0093800D01*
X0142770Y0093800D02*
X0142770Y0098070D01*
X0141702Y0098070D01*
X0140634Y0097003D01*
X0144945Y0097003D02*
X0144945Y0094868D01*
X0146012Y0093800D01*
X0148147Y0093800D01*
X0149215Y0094868D01*
X0149215Y0097003D01*
X0148147Y0098070D01*
X0146012Y0098070D01*
X0144945Y0097003D01*
X0151377Y0098070D02*
X0153512Y0098070D01*
X0152444Y0099138D02*
X0152444Y0094868D01*
X0151377Y0093800D01*
X0155674Y0093800D02*
X0156741Y0094868D01*
X0156741Y0099138D01*
X0155674Y0098070D02*
X0157809Y0098070D01*
X0159984Y0097003D02*
X0161052Y0098070D01*
X0163187Y0098070D01*
X0164255Y0097003D01*
X0164255Y0094868D01*
X0163187Y0093800D01*
X0161052Y0093800D01*
X0159984Y0094868D01*
X0159984Y0097003D01*
X0166430Y0098070D02*
X0167497Y0097003D01*
X0170700Y0097003D01*
X0167497Y0097003D02*
X0166430Y0095935D01*
X0166430Y0094868D01*
X0167497Y0093800D01*
X0170700Y0093800D01*
X0170700Y0100205D01*
X0167497Y0100205D01*
X0166430Y0099138D01*
X0166430Y0098070D01*
X0167497Y0103800D02*
X0166430Y0104868D01*
X0166430Y0105935D01*
X0167497Y0107003D01*
X0169632Y0107003D01*
X0170700Y0108070D01*
X0170700Y0109138D01*
X0169632Y0110205D01*
X0167497Y0110205D01*
X0166430Y0109138D01*
X0164255Y0107003D02*
X0163187Y0108070D01*
X0161052Y0108070D01*
X0159984Y0107003D01*
X0159984Y0105935D01*
X0164255Y0105935D01*
X0164255Y0104868D02*
X0163187Y0103800D01*
X0161052Y0103800D01*
X0157809Y0103800D02*
X0157809Y0108070D01*
X0154606Y0108070D01*
X0153539Y0107003D01*
X0153539Y0103800D01*
X0151364Y0103800D02*
X0148161Y0103800D01*
X0147093Y0104868D01*
X0148161Y0105935D01*
X0150296Y0105935D01*
X0151364Y0107003D01*
X0150296Y0108070D01*
X0147093Y0108070D01*
X0144918Y0107003D02*
X0144918Y0104868D01*
X0143850Y0103800D01*
X0141715Y0103800D01*
X0140648Y0104868D01*
X0140648Y0107003D01*
X0141715Y0108070D01*
X0143850Y0108070D01*
X0144918Y0107003D01*
X0138473Y0108070D02*
X0138473Y0103800D01*
X0138473Y0105935D02*
X0136337Y0108070D01*
X0135270Y0108070D01*
X0133101Y0107003D02*
X0132034Y0108070D01*
X0128831Y0108070D01*
X0129899Y0105935D02*
X0132034Y0105935D01*
X0133101Y0107003D01*
X0133101Y0103800D02*
X0129899Y0103800D01*
X0128831Y0104868D01*
X0129899Y0105935D01*
X0164255Y0104868D02*
X0164255Y0107003D01*
X0167497Y0103800D02*
X0169632Y0103800D01*
X0170700Y0104868D01*
D12*
X0121000Y0081000D03*
D13*
X0111000Y0081000D03*
D14*
X0111000Y0061000D03*
X0121000Y0061000D03*
X0131000Y0061000D03*
X0141000Y0061000D03*
X0151000Y0061000D03*
X0141000Y0041000D03*
X0121000Y0041000D03*
X0101000Y0041000D03*
X0081000Y0041000D03*
X0061000Y0041000D03*
X0041000Y0041000D03*
X0021000Y0041000D03*
X0021000Y0061000D03*
X0031000Y0061000D03*
X0041000Y0061000D03*
X0051000Y0061000D03*
X0081000Y0061000D03*
X0091000Y0061000D03*
X0101000Y0061000D03*
X0161000Y0041000D03*
D15*
X0076000Y0083500D03*
X0066000Y0083500D03*
X0071000Y0091000D03*
X0061000Y0101000D03*
X0051000Y0101000D03*
X0041000Y0091000D03*
X0036000Y0083500D03*
X0046000Y0083500D03*
X0021000Y0101000D03*
X0091000Y0101000D03*
D16*
X0111000Y0081000D01*
X0121000Y0081000D02*
X0093500Y0108500D01*
X0041000Y0108500D01*
X0028500Y0096000D01*
X0028500Y0073500D01*
X0031000Y0071000D01*
X0031000Y0061000D01*
X0031000Y0038500D01*
X0046000Y0023500D01*
X0131000Y0023500D01*
X0131000Y0038500D01*
X0118500Y0051000D01*
X0111000Y0051000D01*
X0106000Y0056000D01*
X0106000Y0063500D01*
X0103500Y0066000D01*
X0096000Y0066000D01*
X0091000Y0061000D01*
X0111000Y0041000D01*
X0111000Y0036000D01*
X0108500Y0033500D01*
X0088500Y0033500D01*
X0081000Y0041000D01*
X0061000Y0041000D02*
X0061000Y0051000D01*
X0051000Y0061000D01*
X0051000Y0071000D01*
X0066000Y0083500D01*
X0071000Y0081000D02*
X0071000Y0091000D01*
X0081000Y0091000D01*
X0091000Y0101000D01*
X0071000Y0091000D02*
X0041000Y0091000D01*
X0036000Y0083500D02*
X0041000Y0078500D01*
X0041000Y0061000D01*
X0041000Y0041000D01*
X0051000Y0033500D02*
X0056000Y0028500D01*
X0113500Y0028500D01*
X0121000Y0036000D01*
X0121000Y0041000D01*
X0116000Y0046000D01*
X0111000Y0046000D01*
X0101000Y0056000D01*
X0101000Y0061000D01*
X0111000Y0061000D02*
X0118500Y0053500D01*
X0128500Y0053500D01*
X0141000Y0041000D01*
X0146000Y0056000D02*
X0161000Y0041000D01*
X0143500Y0023500D01*
X0131000Y0023500D01*
X0101000Y0041000D02*
X0081000Y0061000D01*
X0081000Y0071000D01*
X0071000Y0081000D01*
X0076000Y0083500D02*
X0098500Y0083500D01*
X0111000Y0071000D01*
X0111000Y0061000D01*
X0121000Y0061000D02*
X0121000Y0081000D01*
X0121000Y0061000D02*
X0126000Y0056000D01*
X0146000Y0056000D01*
X0061000Y0101000D02*
X0051000Y0101000D01*
X0046000Y0083500D02*
X0046000Y0056000D01*
X0051000Y0051000D01*
X0051000Y0033500D01*
X0021000Y0041000D02*
X0021000Y0061000D01*
X0021000Y0101000D01*
M02*
