G75*
%MOIN*%
%OFA0B0*%
%FSLAX25Y25*%
%IPPOS*%
%LPD*%
%AMOC8*
5,1,8,0,0,1.08239X$1,22.5*
%
%ADD10C,0.00000*%
D10*
X0001000Y0001000D02*
X0001000Y0422201D01*
X0650921Y0422201D01*
X0650921Y0001000D01*
X0001000Y0001000D01*
X0014504Y0021000D02*
X0014506Y0021161D01*
X0014512Y0021321D01*
X0014522Y0021482D01*
X0014536Y0021642D01*
X0014554Y0021801D01*
X0014575Y0021961D01*
X0014601Y0022119D01*
X0014631Y0022277D01*
X0014664Y0022434D01*
X0014702Y0022591D01*
X0014743Y0022746D01*
X0014788Y0022900D01*
X0014837Y0023053D01*
X0014890Y0023205D01*
X0014946Y0023355D01*
X0015006Y0023504D01*
X0015070Y0023652D01*
X0015137Y0023798D01*
X0015208Y0023942D01*
X0015283Y0024084D01*
X0015361Y0024225D01*
X0015442Y0024363D01*
X0015527Y0024500D01*
X0015616Y0024634D01*
X0015707Y0024766D01*
X0015802Y0024896D01*
X0015900Y0025023D01*
X0016001Y0025148D01*
X0016105Y0025271D01*
X0016212Y0025390D01*
X0016322Y0025507D01*
X0016435Y0025622D01*
X0016551Y0025733D01*
X0016669Y0025842D01*
X0016790Y0025947D01*
X0016914Y0026050D01*
X0017040Y0026150D01*
X0017169Y0026246D01*
X0017300Y0026339D01*
X0017433Y0026429D01*
X0017568Y0026516D01*
X0017706Y0026599D01*
X0017845Y0026678D01*
X0017987Y0026755D01*
X0018130Y0026828D01*
X0018275Y0026897D01*
X0018422Y0026962D01*
X0018570Y0027024D01*
X0018720Y0027083D01*
X0018871Y0027137D01*
X0019023Y0027188D01*
X0019177Y0027235D01*
X0019332Y0027278D01*
X0019487Y0027317D01*
X0019644Y0027353D01*
X0019802Y0027385D01*
X0019960Y0027412D01*
X0020119Y0027436D01*
X0020278Y0027456D01*
X0020438Y0027472D01*
X0020599Y0027484D01*
X0020759Y0027492D01*
X0020920Y0027496D01*
X0021080Y0027496D01*
X0021241Y0027492D01*
X0021401Y0027484D01*
X0021562Y0027472D01*
X0021722Y0027456D01*
X0021881Y0027436D01*
X0022040Y0027412D01*
X0022198Y0027385D01*
X0022356Y0027353D01*
X0022513Y0027317D01*
X0022668Y0027278D01*
X0022823Y0027235D01*
X0022977Y0027188D01*
X0023129Y0027137D01*
X0023280Y0027083D01*
X0023430Y0027024D01*
X0023578Y0026962D01*
X0023725Y0026897D01*
X0023870Y0026828D01*
X0024013Y0026755D01*
X0024155Y0026678D01*
X0024294Y0026599D01*
X0024432Y0026516D01*
X0024567Y0026429D01*
X0024700Y0026339D01*
X0024831Y0026246D01*
X0024960Y0026150D01*
X0025086Y0026050D01*
X0025210Y0025947D01*
X0025331Y0025842D01*
X0025449Y0025733D01*
X0025565Y0025622D01*
X0025678Y0025507D01*
X0025788Y0025390D01*
X0025895Y0025271D01*
X0025999Y0025148D01*
X0026100Y0025023D01*
X0026198Y0024896D01*
X0026293Y0024766D01*
X0026384Y0024634D01*
X0026473Y0024500D01*
X0026558Y0024363D01*
X0026639Y0024225D01*
X0026717Y0024084D01*
X0026792Y0023942D01*
X0026863Y0023798D01*
X0026930Y0023652D01*
X0026994Y0023504D01*
X0027054Y0023355D01*
X0027110Y0023205D01*
X0027163Y0023053D01*
X0027212Y0022900D01*
X0027257Y0022746D01*
X0027298Y0022591D01*
X0027336Y0022434D01*
X0027369Y0022277D01*
X0027399Y0022119D01*
X0027425Y0021961D01*
X0027446Y0021801D01*
X0027464Y0021642D01*
X0027478Y0021482D01*
X0027488Y0021321D01*
X0027494Y0021161D01*
X0027496Y0021000D01*
X0027494Y0020839D01*
X0027488Y0020679D01*
X0027478Y0020518D01*
X0027464Y0020358D01*
X0027446Y0020199D01*
X0027425Y0020039D01*
X0027399Y0019881D01*
X0027369Y0019723D01*
X0027336Y0019566D01*
X0027298Y0019409D01*
X0027257Y0019254D01*
X0027212Y0019100D01*
X0027163Y0018947D01*
X0027110Y0018795D01*
X0027054Y0018645D01*
X0026994Y0018496D01*
X0026930Y0018348D01*
X0026863Y0018202D01*
X0026792Y0018058D01*
X0026717Y0017916D01*
X0026639Y0017775D01*
X0026558Y0017637D01*
X0026473Y0017500D01*
X0026384Y0017366D01*
X0026293Y0017234D01*
X0026198Y0017104D01*
X0026100Y0016977D01*
X0025999Y0016852D01*
X0025895Y0016729D01*
X0025788Y0016610D01*
X0025678Y0016493D01*
X0025565Y0016378D01*
X0025449Y0016267D01*
X0025331Y0016158D01*
X0025210Y0016053D01*
X0025086Y0015950D01*
X0024960Y0015850D01*
X0024831Y0015754D01*
X0024700Y0015661D01*
X0024567Y0015571D01*
X0024432Y0015484D01*
X0024294Y0015401D01*
X0024155Y0015322D01*
X0024013Y0015245D01*
X0023870Y0015172D01*
X0023725Y0015103D01*
X0023578Y0015038D01*
X0023430Y0014976D01*
X0023280Y0014917D01*
X0023129Y0014863D01*
X0022977Y0014812D01*
X0022823Y0014765D01*
X0022668Y0014722D01*
X0022513Y0014683D01*
X0022356Y0014647D01*
X0022198Y0014615D01*
X0022040Y0014588D01*
X0021881Y0014564D01*
X0021722Y0014544D01*
X0021562Y0014528D01*
X0021401Y0014516D01*
X0021241Y0014508D01*
X0021080Y0014504D01*
X0020920Y0014504D01*
X0020759Y0014508D01*
X0020599Y0014516D01*
X0020438Y0014528D01*
X0020278Y0014544D01*
X0020119Y0014564D01*
X0019960Y0014588D01*
X0019802Y0014615D01*
X0019644Y0014647D01*
X0019487Y0014683D01*
X0019332Y0014722D01*
X0019177Y0014765D01*
X0019023Y0014812D01*
X0018871Y0014863D01*
X0018720Y0014917D01*
X0018570Y0014976D01*
X0018422Y0015038D01*
X0018275Y0015103D01*
X0018130Y0015172D01*
X0017987Y0015245D01*
X0017845Y0015322D01*
X0017706Y0015401D01*
X0017568Y0015484D01*
X0017433Y0015571D01*
X0017300Y0015661D01*
X0017169Y0015754D01*
X0017040Y0015850D01*
X0016914Y0015950D01*
X0016790Y0016053D01*
X0016669Y0016158D01*
X0016551Y0016267D01*
X0016435Y0016378D01*
X0016322Y0016493D01*
X0016212Y0016610D01*
X0016105Y0016729D01*
X0016001Y0016852D01*
X0015900Y0016977D01*
X0015802Y0017104D01*
X0015707Y0017234D01*
X0015616Y0017366D01*
X0015527Y0017500D01*
X0015442Y0017637D01*
X0015361Y0017775D01*
X0015283Y0017916D01*
X0015208Y0018058D01*
X0015137Y0018202D01*
X0015070Y0018348D01*
X0015006Y0018496D01*
X0014946Y0018645D01*
X0014890Y0018795D01*
X0014837Y0018947D01*
X0014788Y0019100D01*
X0014743Y0019254D01*
X0014702Y0019409D01*
X0014664Y0019566D01*
X0014631Y0019723D01*
X0014601Y0019881D01*
X0014575Y0020039D01*
X0014554Y0020199D01*
X0014536Y0020358D01*
X0014522Y0020518D01*
X0014512Y0020679D01*
X0014506Y0020839D01*
X0014504Y0021000D01*
X0007063Y0331000D02*
X0007065Y0331125D01*
X0007071Y0331250D01*
X0007081Y0331374D01*
X0007095Y0331498D01*
X0007112Y0331622D01*
X0007134Y0331745D01*
X0007160Y0331867D01*
X0007189Y0331989D01*
X0007222Y0332109D01*
X0007260Y0332228D01*
X0007300Y0332347D01*
X0007345Y0332463D01*
X0007393Y0332578D01*
X0007445Y0332692D01*
X0007501Y0332804D01*
X0007560Y0332914D01*
X0007622Y0333022D01*
X0007688Y0333129D01*
X0007757Y0333233D01*
X0007830Y0333334D01*
X0007905Y0333434D01*
X0007984Y0333531D01*
X0008066Y0333625D01*
X0008151Y0333717D01*
X0008238Y0333806D01*
X0008329Y0333892D01*
X0008422Y0333975D01*
X0008518Y0334056D01*
X0008616Y0334133D01*
X0008716Y0334207D01*
X0008819Y0334278D01*
X0008924Y0334345D01*
X0009032Y0334410D01*
X0009141Y0334470D01*
X0009252Y0334528D01*
X0009365Y0334581D01*
X0009479Y0334631D01*
X0009595Y0334678D01*
X0009712Y0334720D01*
X0009831Y0334759D01*
X0009951Y0334795D01*
X0010072Y0334826D01*
X0010194Y0334854D01*
X0010316Y0334877D01*
X0010440Y0334897D01*
X0010564Y0334913D01*
X0010688Y0334925D01*
X0010813Y0334933D01*
X0010938Y0334937D01*
X0011062Y0334937D01*
X0011187Y0334933D01*
X0011312Y0334925D01*
X0011436Y0334913D01*
X0011560Y0334897D01*
X0011684Y0334877D01*
X0011806Y0334854D01*
X0011928Y0334826D01*
X0012049Y0334795D01*
X0012169Y0334759D01*
X0012288Y0334720D01*
X0012405Y0334678D01*
X0012521Y0334631D01*
X0012635Y0334581D01*
X0012748Y0334528D01*
X0012859Y0334470D01*
X0012969Y0334410D01*
X0013076Y0334345D01*
X0013181Y0334278D01*
X0013284Y0334207D01*
X0013384Y0334133D01*
X0013482Y0334056D01*
X0013578Y0333975D01*
X0013671Y0333892D01*
X0013762Y0333806D01*
X0013849Y0333717D01*
X0013934Y0333625D01*
X0014016Y0333531D01*
X0014095Y0333434D01*
X0014170Y0333334D01*
X0014243Y0333233D01*
X0014312Y0333129D01*
X0014378Y0333022D01*
X0014440Y0332914D01*
X0014499Y0332804D01*
X0014555Y0332692D01*
X0014607Y0332578D01*
X0014655Y0332463D01*
X0014700Y0332347D01*
X0014740Y0332228D01*
X0014778Y0332109D01*
X0014811Y0331989D01*
X0014840Y0331867D01*
X0014866Y0331745D01*
X0014888Y0331622D01*
X0014905Y0331498D01*
X0014919Y0331374D01*
X0014929Y0331250D01*
X0014935Y0331125D01*
X0014937Y0331000D01*
X0014935Y0330875D01*
X0014929Y0330750D01*
X0014919Y0330626D01*
X0014905Y0330502D01*
X0014888Y0330378D01*
X0014866Y0330255D01*
X0014840Y0330133D01*
X0014811Y0330011D01*
X0014778Y0329891D01*
X0014740Y0329772D01*
X0014700Y0329653D01*
X0014655Y0329537D01*
X0014607Y0329422D01*
X0014555Y0329308D01*
X0014499Y0329196D01*
X0014440Y0329086D01*
X0014378Y0328978D01*
X0014312Y0328871D01*
X0014243Y0328767D01*
X0014170Y0328666D01*
X0014095Y0328566D01*
X0014016Y0328469D01*
X0013934Y0328375D01*
X0013849Y0328283D01*
X0013762Y0328194D01*
X0013671Y0328108D01*
X0013578Y0328025D01*
X0013482Y0327944D01*
X0013384Y0327867D01*
X0013284Y0327793D01*
X0013181Y0327722D01*
X0013076Y0327655D01*
X0012968Y0327590D01*
X0012859Y0327530D01*
X0012748Y0327472D01*
X0012635Y0327419D01*
X0012521Y0327369D01*
X0012405Y0327322D01*
X0012288Y0327280D01*
X0012169Y0327241D01*
X0012049Y0327205D01*
X0011928Y0327174D01*
X0011806Y0327146D01*
X0011684Y0327123D01*
X0011560Y0327103D01*
X0011436Y0327087D01*
X0011312Y0327075D01*
X0011187Y0327067D01*
X0011062Y0327063D01*
X0010938Y0327063D01*
X0010813Y0327067D01*
X0010688Y0327075D01*
X0010564Y0327087D01*
X0010440Y0327103D01*
X0010316Y0327123D01*
X0010194Y0327146D01*
X0010072Y0327174D01*
X0009951Y0327205D01*
X0009831Y0327241D01*
X0009712Y0327280D01*
X0009595Y0327322D01*
X0009479Y0327369D01*
X0009365Y0327419D01*
X0009252Y0327472D01*
X0009141Y0327530D01*
X0009031Y0327590D01*
X0008924Y0327655D01*
X0008819Y0327722D01*
X0008716Y0327793D01*
X0008616Y0327867D01*
X0008518Y0327944D01*
X0008422Y0328025D01*
X0008329Y0328108D01*
X0008238Y0328194D01*
X0008151Y0328283D01*
X0008066Y0328375D01*
X0007984Y0328469D01*
X0007905Y0328566D01*
X0007830Y0328666D01*
X0007757Y0328767D01*
X0007688Y0328871D01*
X0007622Y0328978D01*
X0007560Y0329086D01*
X0007501Y0329196D01*
X0007445Y0329308D01*
X0007393Y0329422D01*
X0007345Y0329537D01*
X0007300Y0329653D01*
X0007260Y0329772D01*
X0007222Y0329891D01*
X0007189Y0330011D01*
X0007160Y0330133D01*
X0007134Y0330255D01*
X0007112Y0330378D01*
X0007095Y0330502D01*
X0007081Y0330626D01*
X0007071Y0330750D01*
X0007065Y0330875D01*
X0007063Y0331000D01*
X0047063Y0331000D02*
X0047065Y0331125D01*
X0047071Y0331250D01*
X0047081Y0331374D01*
X0047095Y0331498D01*
X0047112Y0331622D01*
X0047134Y0331745D01*
X0047160Y0331867D01*
X0047189Y0331989D01*
X0047222Y0332109D01*
X0047260Y0332228D01*
X0047300Y0332347D01*
X0047345Y0332463D01*
X0047393Y0332578D01*
X0047445Y0332692D01*
X0047501Y0332804D01*
X0047560Y0332914D01*
X0047622Y0333022D01*
X0047688Y0333129D01*
X0047757Y0333233D01*
X0047830Y0333334D01*
X0047905Y0333434D01*
X0047984Y0333531D01*
X0048066Y0333625D01*
X0048151Y0333717D01*
X0048238Y0333806D01*
X0048329Y0333892D01*
X0048422Y0333975D01*
X0048518Y0334056D01*
X0048616Y0334133D01*
X0048716Y0334207D01*
X0048819Y0334278D01*
X0048924Y0334345D01*
X0049032Y0334410D01*
X0049141Y0334470D01*
X0049252Y0334528D01*
X0049365Y0334581D01*
X0049479Y0334631D01*
X0049595Y0334678D01*
X0049712Y0334720D01*
X0049831Y0334759D01*
X0049951Y0334795D01*
X0050072Y0334826D01*
X0050194Y0334854D01*
X0050316Y0334877D01*
X0050440Y0334897D01*
X0050564Y0334913D01*
X0050688Y0334925D01*
X0050813Y0334933D01*
X0050938Y0334937D01*
X0051062Y0334937D01*
X0051187Y0334933D01*
X0051312Y0334925D01*
X0051436Y0334913D01*
X0051560Y0334897D01*
X0051684Y0334877D01*
X0051806Y0334854D01*
X0051928Y0334826D01*
X0052049Y0334795D01*
X0052169Y0334759D01*
X0052288Y0334720D01*
X0052405Y0334678D01*
X0052521Y0334631D01*
X0052635Y0334581D01*
X0052748Y0334528D01*
X0052859Y0334470D01*
X0052969Y0334410D01*
X0053076Y0334345D01*
X0053181Y0334278D01*
X0053284Y0334207D01*
X0053384Y0334133D01*
X0053482Y0334056D01*
X0053578Y0333975D01*
X0053671Y0333892D01*
X0053762Y0333806D01*
X0053849Y0333717D01*
X0053934Y0333625D01*
X0054016Y0333531D01*
X0054095Y0333434D01*
X0054170Y0333334D01*
X0054243Y0333233D01*
X0054312Y0333129D01*
X0054378Y0333022D01*
X0054440Y0332914D01*
X0054499Y0332804D01*
X0054555Y0332692D01*
X0054607Y0332578D01*
X0054655Y0332463D01*
X0054700Y0332347D01*
X0054740Y0332228D01*
X0054778Y0332109D01*
X0054811Y0331989D01*
X0054840Y0331867D01*
X0054866Y0331745D01*
X0054888Y0331622D01*
X0054905Y0331498D01*
X0054919Y0331374D01*
X0054929Y0331250D01*
X0054935Y0331125D01*
X0054937Y0331000D01*
X0054935Y0330875D01*
X0054929Y0330750D01*
X0054919Y0330626D01*
X0054905Y0330502D01*
X0054888Y0330378D01*
X0054866Y0330255D01*
X0054840Y0330133D01*
X0054811Y0330011D01*
X0054778Y0329891D01*
X0054740Y0329772D01*
X0054700Y0329653D01*
X0054655Y0329537D01*
X0054607Y0329422D01*
X0054555Y0329308D01*
X0054499Y0329196D01*
X0054440Y0329086D01*
X0054378Y0328978D01*
X0054312Y0328871D01*
X0054243Y0328767D01*
X0054170Y0328666D01*
X0054095Y0328566D01*
X0054016Y0328469D01*
X0053934Y0328375D01*
X0053849Y0328283D01*
X0053762Y0328194D01*
X0053671Y0328108D01*
X0053578Y0328025D01*
X0053482Y0327944D01*
X0053384Y0327867D01*
X0053284Y0327793D01*
X0053181Y0327722D01*
X0053076Y0327655D01*
X0052968Y0327590D01*
X0052859Y0327530D01*
X0052748Y0327472D01*
X0052635Y0327419D01*
X0052521Y0327369D01*
X0052405Y0327322D01*
X0052288Y0327280D01*
X0052169Y0327241D01*
X0052049Y0327205D01*
X0051928Y0327174D01*
X0051806Y0327146D01*
X0051684Y0327123D01*
X0051560Y0327103D01*
X0051436Y0327087D01*
X0051312Y0327075D01*
X0051187Y0327067D01*
X0051062Y0327063D01*
X0050938Y0327063D01*
X0050813Y0327067D01*
X0050688Y0327075D01*
X0050564Y0327087D01*
X0050440Y0327103D01*
X0050316Y0327123D01*
X0050194Y0327146D01*
X0050072Y0327174D01*
X0049951Y0327205D01*
X0049831Y0327241D01*
X0049712Y0327280D01*
X0049595Y0327322D01*
X0049479Y0327369D01*
X0049365Y0327419D01*
X0049252Y0327472D01*
X0049141Y0327530D01*
X0049031Y0327590D01*
X0048924Y0327655D01*
X0048819Y0327722D01*
X0048716Y0327793D01*
X0048616Y0327867D01*
X0048518Y0327944D01*
X0048422Y0328025D01*
X0048329Y0328108D01*
X0048238Y0328194D01*
X0048151Y0328283D01*
X0048066Y0328375D01*
X0047984Y0328469D01*
X0047905Y0328566D01*
X0047830Y0328666D01*
X0047757Y0328767D01*
X0047688Y0328871D01*
X0047622Y0328978D01*
X0047560Y0329086D01*
X0047501Y0329196D01*
X0047445Y0329308D01*
X0047393Y0329422D01*
X0047345Y0329537D01*
X0047300Y0329653D01*
X0047260Y0329772D01*
X0047222Y0329891D01*
X0047189Y0330011D01*
X0047160Y0330133D01*
X0047134Y0330255D01*
X0047112Y0330378D01*
X0047095Y0330502D01*
X0047081Y0330626D01*
X0047071Y0330750D01*
X0047065Y0330875D01*
X0047063Y0331000D01*
X0047063Y0371000D02*
X0047065Y0371125D01*
X0047071Y0371250D01*
X0047081Y0371374D01*
X0047095Y0371498D01*
X0047112Y0371622D01*
X0047134Y0371745D01*
X0047160Y0371867D01*
X0047189Y0371989D01*
X0047222Y0372109D01*
X0047260Y0372228D01*
X0047300Y0372347D01*
X0047345Y0372463D01*
X0047393Y0372578D01*
X0047445Y0372692D01*
X0047501Y0372804D01*
X0047560Y0372914D01*
X0047622Y0373022D01*
X0047688Y0373129D01*
X0047757Y0373233D01*
X0047830Y0373334D01*
X0047905Y0373434D01*
X0047984Y0373531D01*
X0048066Y0373625D01*
X0048151Y0373717D01*
X0048238Y0373806D01*
X0048329Y0373892D01*
X0048422Y0373975D01*
X0048518Y0374056D01*
X0048616Y0374133D01*
X0048716Y0374207D01*
X0048819Y0374278D01*
X0048924Y0374345D01*
X0049032Y0374410D01*
X0049141Y0374470D01*
X0049252Y0374528D01*
X0049365Y0374581D01*
X0049479Y0374631D01*
X0049595Y0374678D01*
X0049712Y0374720D01*
X0049831Y0374759D01*
X0049951Y0374795D01*
X0050072Y0374826D01*
X0050194Y0374854D01*
X0050316Y0374877D01*
X0050440Y0374897D01*
X0050564Y0374913D01*
X0050688Y0374925D01*
X0050813Y0374933D01*
X0050938Y0374937D01*
X0051062Y0374937D01*
X0051187Y0374933D01*
X0051312Y0374925D01*
X0051436Y0374913D01*
X0051560Y0374897D01*
X0051684Y0374877D01*
X0051806Y0374854D01*
X0051928Y0374826D01*
X0052049Y0374795D01*
X0052169Y0374759D01*
X0052288Y0374720D01*
X0052405Y0374678D01*
X0052521Y0374631D01*
X0052635Y0374581D01*
X0052748Y0374528D01*
X0052859Y0374470D01*
X0052969Y0374410D01*
X0053076Y0374345D01*
X0053181Y0374278D01*
X0053284Y0374207D01*
X0053384Y0374133D01*
X0053482Y0374056D01*
X0053578Y0373975D01*
X0053671Y0373892D01*
X0053762Y0373806D01*
X0053849Y0373717D01*
X0053934Y0373625D01*
X0054016Y0373531D01*
X0054095Y0373434D01*
X0054170Y0373334D01*
X0054243Y0373233D01*
X0054312Y0373129D01*
X0054378Y0373022D01*
X0054440Y0372914D01*
X0054499Y0372804D01*
X0054555Y0372692D01*
X0054607Y0372578D01*
X0054655Y0372463D01*
X0054700Y0372347D01*
X0054740Y0372228D01*
X0054778Y0372109D01*
X0054811Y0371989D01*
X0054840Y0371867D01*
X0054866Y0371745D01*
X0054888Y0371622D01*
X0054905Y0371498D01*
X0054919Y0371374D01*
X0054929Y0371250D01*
X0054935Y0371125D01*
X0054937Y0371000D01*
X0054935Y0370875D01*
X0054929Y0370750D01*
X0054919Y0370626D01*
X0054905Y0370502D01*
X0054888Y0370378D01*
X0054866Y0370255D01*
X0054840Y0370133D01*
X0054811Y0370011D01*
X0054778Y0369891D01*
X0054740Y0369772D01*
X0054700Y0369653D01*
X0054655Y0369537D01*
X0054607Y0369422D01*
X0054555Y0369308D01*
X0054499Y0369196D01*
X0054440Y0369086D01*
X0054378Y0368978D01*
X0054312Y0368871D01*
X0054243Y0368767D01*
X0054170Y0368666D01*
X0054095Y0368566D01*
X0054016Y0368469D01*
X0053934Y0368375D01*
X0053849Y0368283D01*
X0053762Y0368194D01*
X0053671Y0368108D01*
X0053578Y0368025D01*
X0053482Y0367944D01*
X0053384Y0367867D01*
X0053284Y0367793D01*
X0053181Y0367722D01*
X0053076Y0367655D01*
X0052968Y0367590D01*
X0052859Y0367530D01*
X0052748Y0367472D01*
X0052635Y0367419D01*
X0052521Y0367369D01*
X0052405Y0367322D01*
X0052288Y0367280D01*
X0052169Y0367241D01*
X0052049Y0367205D01*
X0051928Y0367174D01*
X0051806Y0367146D01*
X0051684Y0367123D01*
X0051560Y0367103D01*
X0051436Y0367087D01*
X0051312Y0367075D01*
X0051187Y0367067D01*
X0051062Y0367063D01*
X0050938Y0367063D01*
X0050813Y0367067D01*
X0050688Y0367075D01*
X0050564Y0367087D01*
X0050440Y0367103D01*
X0050316Y0367123D01*
X0050194Y0367146D01*
X0050072Y0367174D01*
X0049951Y0367205D01*
X0049831Y0367241D01*
X0049712Y0367280D01*
X0049595Y0367322D01*
X0049479Y0367369D01*
X0049365Y0367419D01*
X0049252Y0367472D01*
X0049141Y0367530D01*
X0049031Y0367590D01*
X0048924Y0367655D01*
X0048819Y0367722D01*
X0048716Y0367793D01*
X0048616Y0367867D01*
X0048518Y0367944D01*
X0048422Y0368025D01*
X0048329Y0368108D01*
X0048238Y0368194D01*
X0048151Y0368283D01*
X0048066Y0368375D01*
X0047984Y0368469D01*
X0047905Y0368566D01*
X0047830Y0368666D01*
X0047757Y0368767D01*
X0047688Y0368871D01*
X0047622Y0368978D01*
X0047560Y0369086D01*
X0047501Y0369196D01*
X0047445Y0369308D01*
X0047393Y0369422D01*
X0047345Y0369537D01*
X0047300Y0369653D01*
X0047260Y0369772D01*
X0047222Y0369891D01*
X0047189Y0370011D01*
X0047160Y0370133D01*
X0047134Y0370255D01*
X0047112Y0370378D01*
X0047095Y0370502D01*
X0047081Y0370626D01*
X0047071Y0370750D01*
X0047065Y0370875D01*
X0047063Y0371000D01*
X0007063Y0371000D02*
X0007065Y0371125D01*
X0007071Y0371250D01*
X0007081Y0371374D01*
X0007095Y0371498D01*
X0007112Y0371622D01*
X0007134Y0371745D01*
X0007160Y0371867D01*
X0007189Y0371989D01*
X0007222Y0372109D01*
X0007260Y0372228D01*
X0007300Y0372347D01*
X0007345Y0372463D01*
X0007393Y0372578D01*
X0007445Y0372692D01*
X0007501Y0372804D01*
X0007560Y0372914D01*
X0007622Y0373022D01*
X0007688Y0373129D01*
X0007757Y0373233D01*
X0007830Y0373334D01*
X0007905Y0373434D01*
X0007984Y0373531D01*
X0008066Y0373625D01*
X0008151Y0373717D01*
X0008238Y0373806D01*
X0008329Y0373892D01*
X0008422Y0373975D01*
X0008518Y0374056D01*
X0008616Y0374133D01*
X0008716Y0374207D01*
X0008819Y0374278D01*
X0008924Y0374345D01*
X0009032Y0374410D01*
X0009141Y0374470D01*
X0009252Y0374528D01*
X0009365Y0374581D01*
X0009479Y0374631D01*
X0009595Y0374678D01*
X0009712Y0374720D01*
X0009831Y0374759D01*
X0009951Y0374795D01*
X0010072Y0374826D01*
X0010194Y0374854D01*
X0010316Y0374877D01*
X0010440Y0374897D01*
X0010564Y0374913D01*
X0010688Y0374925D01*
X0010813Y0374933D01*
X0010938Y0374937D01*
X0011062Y0374937D01*
X0011187Y0374933D01*
X0011312Y0374925D01*
X0011436Y0374913D01*
X0011560Y0374897D01*
X0011684Y0374877D01*
X0011806Y0374854D01*
X0011928Y0374826D01*
X0012049Y0374795D01*
X0012169Y0374759D01*
X0012288Y0374720D01*
X0012405Y0374678D01*
X0012521Y0374631D01*
X0012635Y0374581D01*
X0012748Y0374528D01*
X0012859Y0374470D01*
X0012969Y0374410D01*
X0013076Y0374345D01*
X0013181Y0374278D01*
X0013284Y0374207D01*
X0013384Y0374133D01*
X0013482Y0374056D01*
X0013578Y0373975D01*
X0013671Y0373892D01*
X0013762Y0373806D01*
X0013849Y0373717D01*
X0013934Y0373625D01*
X0014016Y0373531D01*
X0014095Y0373434D01*
X0014170Y0373334D01*
X0014243Y0373233D01*
X0014312Y0373129D01*
X0014378Y0373022D01*
X0014440Y0372914D01*
X0014499Y0372804D01*
X0014555Y0372692D01*
X0014607Y0372578D01*
X0014655Y0372463D01*
X0014700Y0372347D01*
X0014740Y0372228D01*
X0014778Y0372109D01*
X0014811Y0371989D01*
X0014840Y0371867D01*
X0014866Y0371745D01*
X0014888Y0371622D01*
X0014905Y0371498D01*
X0014919Y0371374D01*
X0014929Y0371250D01*
X0014935Y0371125D01*
X0014937Y0371000D01*
X0014935Y0370875D01*
X0014929Y0370750D01*
X0014919Y0370626D01*
X0014905Y0370502D01*
X0014888Y0370378D01*
X0014866Y0370255D01*
X0014840Y0370133D01*
X0014811Y0370011D01*
X0014778Y0369891D01*
X0014740Y0369772D01*
X0014700Y0369653D01*
X0014655Y0369537D01*
X0014607Y0369422D01*
X0014555Y0369308D01*
X0014499Y0369196D01*
X0014440Y0369086D01*
X0014378Y0368978D01*
X0014312Y0368871D01*
X0014243Y0368767D01*
X0014170Y0368666D01*
X0014095Y0368566D01*
X0014016Y0368469D01*
X0013934Y0368375D01*
X0013849Y0368283D01*
X0013762Y0368194D01*
X0013671Y0368108D01*
X0013578Y0368025D01*
X0013482Y0367944D01*
X0013384Y0367867D01*
X0013284Y0367793D01*
X0013181Y0367722D01*
X0013076Y0367655D01*
X0012968Y0367590D01*
X0012859Y0367530D01*
X0012748Y0367472D01*
X0012635Y0367419D01*
X0012521Y0367369D01*
X0012405Y0367322D01*
X0012288Y0367280D01*
X0012169Y0367241D01*
X0012049Y0367205D01*
X0011928Y0367174D01*
X0011806Y0367146D01*
X0011684Y0367123D01*
X0011560Y0367103D01*
X0011436Y0367087D01*
X0011312Y0367075D01*
X0011187Y0367067D01*
X0011062Y0367063D01*
X0010938Y0367063D01*
X0010813Y0367067D01*
X0010688Y0367075D01*
X0010564Y0367087D01*
X0010440Y0367103D01*
X0010316Y0367123D01*
X0010194Y0367146D01*
X0010072Y0367174D01*
X0009951Y0367205D01*
X0009831Y0367241D01*
X0009712Y0367280D01*
X0009595Y0367322D01*
X0009479Y0367369D01*
X0009365Y0367419D01*
X0009252Y0367472D01*
X0009141Y0367530D01*
X0009031Y0367590D01*
X0008924Y0367655D01*
X0008819Y0367722D01*
X0008716Y0367793D01*
X0008616Y0367867D01*
X0008518Y0367944D01*
X0008422Y0368025D01*
X0008329Y0368108D01*
X0008238Y0368194D01*
X0008151Y0368283D01*
X0008066Y0368375D01*
X0007984Y0368469D01*
X0007905Y0368566D01*
X0007830Y0368666D01*
X0007757Y0368767D01*
X0007688Y0368871D01*
X0007622Y0368978D01*
X0007560Y0369086D01*
X0007501Y0369196D01*
X0007445Y0369308D01*
X0007393Y0369422D01*
X0007345Y0369537D01*
X0007300Y0369653D01*
X0007260Y0369772D01*
X0007222Y0369891D01*
X0007189Y0370011D01*
X0007160Y0370133D01*
X0007134Y0370255D01*
X0007112Y0370378D01*
X0007095Y0370502D01*
X0007081Y0370626D01*
X0007071Y0370750D01*
X0007065Y0370875D01*
X0007063Y0371000D01*
X0014504Y0401000D02*
X0014506Y0401161D01*
X0014512Y0401321D01*
X0014522Y0401482D01*
X0014536Y0401642D01*
X0014554Y0401801D01*
X0014575Y0401961D01*
X0014601Y0402119D01*
X0014631Y0402277D01*
X0014664Y0402434D01*
X0014702Y0402591D01*
X0014743Y0402746D01*
X0014788Y0402900D01*
X0014837Y0403053D01*
X0014890Y0403205D01*
X0014946Y0403355D01*
X0015006Y0403504D01*
X0015070Y0403652D01*
X0015137Y0403798D01*
X0015208Y0403942D01*
X0015283Y0404084D01*
X0015361Y0404225D01*
X0015442Y0404363D01*
X0015527Y0404500D01*
X0015616Y0404634D01*
X0015707Y0404766D01*
X0015802Y0404896D01*
X0015900Y0405023D01*
X0016001Y0405148D01*
X0016105Y0405271D01*
X0016212Y0405390D01*
X0016322Y0405507D01*
X0016435Y0405622D01*
X0016551Y0405733D01*
X0016669Y0405842D01*
X0016790Y0405947D01*
X0016914Y0406050D01*
X0017040Y0406150D01*
X0017169Y0406246D01*
X0017300Y0406339D01*
X0017433Y0406429D01*
X0017568Y0406516D01*
X0017706Y0406599D01*
X0017845Y0406678D01*
X0017987Y0406755D01*
X0018130Y0406828D01*
X0018275Y0406897D01*
X0018422Y0406962D01*
X0018570Y0407024D01*
X0018720Y0407083D01*
X0018871Y0407137D01*
X0019023Y0407188D01*
X0019177Y0407235D01*
X0019332Y0407278D01*
X0019487Y0407317D01*
X0019644Y0407353D01*
X0019802Y0407385D01*
X0019960Y0407412D01*
X0020119Y0407436D01*
X0020278Y0407456D01*
X0020438Y0407472D01*
X0020599Y0407484D01*
X0020759Y0407492D01*
X0020920Y0407496D01*
X0021080Y0407496D01*
X0021241Y0407492D01*
X0021401Y0407484D01*
X0021562Y0407472D01*
X0021722Y0407456D01*
X0021881Y0407436D01*
X0022040Y0407412D01*
X0022198Y0407385D01*
X0022356Y0407353D01*
X0022513Y0407317D01*
X0022668Y0407278D01*
X0022823Y0407235D01*
X0022977Y0407188D01*
X0023129Y0407137D01*
X0023280Y0407083D01*
X0023430Y0407024D01*
X0023578Y0406962D01*
X0023725Y0406897D01*
X0023870Y0406828D01*
X0024013Y0406755D01*
X0024155Y0406678D01*
X0024294Y0406599D01*
X0024432Y0406516D01*
X0024567Y0406429D01*
X0024700Y0406339D01*
X0024831Y0406246D01*
X0024960Y0406150D01*
X0025086Y0406050D01*
X0025210Y0405947D01*
X0025331Y0405842D01*
X0025449Y0405733D01*
X0025565Y0405622D01*
X0025678Y0405507D01*
X0025788Y0405390D01*
X0025895Y0405271D01*
X0025999Y0405148D01*
X0026100Y0405023D01*
X0026198Y0404896D01*
X0026293Y0404766D01*
X0026384Y0404634D01*
X0026473Y0404500D01*
X0026558Y0404363D01*
X0026639Y0404225D01*
X0026717Y0404084D01*
X0026792Y0403942D01*
X0026863Y0403798D01*
X0026930Y0403652D01*
X0026994Y0403504D01*
X0027054Y0403355D01*
X0027110Y0403205D01*
X0027163Y0403053D01*
X0027212Y0402900D01*
X0027257Y0402746D01*
X0027298Y0402591D01*
X0027336Y0402434D01*
X0027369Y0402277D01*
X0027399Y0402119D01*
X0027425Y0401961D01*
X0027446Y0401801D01*
X0027464Y0401642D01*
X0027478Y0401482D01*
X0027488Y0401321D01*
X0027494Y0401161D01*
X0027496Y0401000D01*
X0027494Y0400839D01*
X0027488Y0400679D01*
X0027478Y0400518D01*
X0027464Y0400358D01*
X0027446Y0400199D01*
X0027425Y0400039D01*
X0027399Y0399881D01*
X0027369Y0399723D01*
X0027336Y0399566D01*
X0027298Y0399409D01*
X0027257Y0399254D01*
X0027212Y0399100D01*
X0027163Y0398947D01*
X0027110Y0398795D01*
X0027054Y0398645D01*
X0026994Y0398496D01*
X0026930Y0398348D01*
X0026863Y0398202D01*
X0026792Y0398058D01*
X0026717Y0397916D01*
X0026639Y0397775D01*
X0026558Y0397637D01*
X0026473Y0397500D01*
X0026384Y0397366D01*
X0026293Y0397234D01*
X0026198Y0397104D01*
X0026100Y0396977D01*
X0025999Y0396852D01*
X0025895Y0396729D01*
X0025788Y0396610D01*
X0025678Y0396493D01*
X0025565Y0396378D01*
X0025449Y0396267D01*
X0025331Y0396158D01*
X0025210Y0396053D01*
X0025086Y0395950D01*
X0024960Y0395850D01*
X0024831Y0395754D01*
X0024700Y0395661D01*
X0024567Y0395571D01*
X0024432Y0395484D01*
X0024294Y0395401D01*
X0024155Y0395322D01*
X0024013Y0395245D01*
X0023870Y0395172D01*
X0023725Y0395103D01*
X0023578Y0395038D01*
X0023430Y0394976D01*
X0023280Y0394917D01*
X0023129Y0394863D01*
X0022977Y0394812D01*
X0022823Y0394765D01*
X0022668Y0394722D01*
X0022513Y0394683D01*
X0022356Y0394647D01*
X0022198Y0394615D01*
X0022040Y0394588D01*
X0021881Y0394564D01*
X0021722Y0394544D01*
X0021562Y0394528D01*
X0021401Y0394516D01*
X0021241Y0394508D01*
X0021080Y0394504D01*
X0020920Y0394504D01*
X0020759Y0394508D01*
X0020599Y0394516D01*
X0020438Y0394528D01*
X0020278Y0394544D01*
X0020119Y0394564D01*
X0019960Y0394588D01*
X0019802Y0394615D01*
X0019644Y0394647D01*
X0019487Y0394683D01*
X0019332Y0394722D01*
X0019177Y0394765D01*
X0019023Y0394812D01*
X0018871Y0394863D01*
X0018720Y0394917D01*
X0018570Y0394976D01*
X0018422Y0395038D01*
X0018275Y0395103D01*
X0018130Y0395172D01*
X0017987Y0395245D01*
X0017845Y0395322D01*
X0017706Y0395401D01*
X0017568Y0395484D01*
X0017433Y0395571D01*
X0017300Y0395661D01*
X0017169Y0395754D01*
X0017040Y0395850D01*
X0016914Y0395950D01*
X0016790Y0396053D01*
X0016669Y0396158D01*
X0016551Y0396267D01*
X0016435Y0396378D01*
X0016322Y0396493D01*
X0016212Y0396610D01*
X0016105Y0396729D01*
X0016001Y0396852D01*
X0015900Y0396977D01*
X0015802Y0397104D01*
X0015707Y0397234D01*
X0015616Y0397366D01*
X0015527Y0397500D01*
X0015442Y0397637D01*
X0015361Y0397775D01*
X0015283Y0397916D01*
X0015208Y0398058D01*
X0015137Y0398202D01*
X0015070Y0398348D01*
X0015006Y0398496D01*
X0014946Y0398645D01*
X0014890Y0398795D01*
X0014837Y0398947D01*
X0014788Y0399100D01*
X0014743Y0399254D01*
X0014702Y0399409D01*
X0014664Y0399566D01*
X0014631Y0399723D01*
X0014601Y0399881D01*
X0014575Y0400039D01*
X0014554Y0400199D01*
X0014536Y0400358D01*
X0014522Y0400518D01*
X0014512Y0400679D01*
X0014506Y0400839D01*
X0014504Y0401000D01*
X0624504Y0401000D02*
X0624506Y0401161D01*
X0624512Y0401321D01*
X0624522Y0401482D01*
X0624536Y0401642D01*
X0624554Y0401801D01*
X0624575Y0401961D01*
X0624601Y0402119D01*
X0624631Y0402277D01*
X0624664Y0402434D01*
X0624702Y0402591D01*
X0624743Y0402746D01*
X0624788Y0402900D01*
X0624837Y0403053D01*
X0624890Y0403205D01*
X0624946Y0403355D01*
X0625006Y0403504D01*
X0625070Y0403652D01*
X0625137Y0403798D01*
X0625208Y0403942D01*
X0625283Y0404084D01*
X0625361Y0404225D01*
X0625442Y0404363D01*
X0625527Y0404500D01*
X0625616Y0404634D01*
X0625707Y0404766D01*
X0625802Y0404896D01*
X0625900Y0405023D01*
X0626001Y0405148D01*
X0626105Y0405271D01*
X0626212Y0405390D01*
X0626322Y0405507D01*
X0626435Y0405622D01*
X0626551Y0405733D01*
X0626669Y0405842D01*
X0626790Y0405947D01*
X0626914Y0406050D01*
X0627040Y0406150D01*
X0627169Y0406246D01*
X0627300Y0406339D01*
X0627433Y0406429D01*
X0627568Y0406516D01*
X0627706Y0406599D01*
X0627845Y0406678D01*
X0627987Y0406755D01*
X0628130Y0406828D01*
X0628275Y0406897D01*
X0628422Y0406962D01*
X0628570Y0407024D01*
X0628720Y0407083D01*
X0628871Y0407137D01*
X0629023Y0407188D01*
X0629177Y0407235D01*
X0629332Y0407278D01*
X0629487Y0407317D01*
X0629644Y0407353D01*
X0629802Y0407385D01*
X0629960Y0407412D01*
X0630119Y0407436D01*
X0630278Y0407456D01*
X0630438Y0407472D01*
X0630599Y0407484D01*
X0630759Y0407492D01*
X0630920Y0407496D01*
X0631080Y0407496D01*
X0631241Y0407492D01*
X0631401Y0407484D01*
X0631562Y0407472D01*
X0631722Y0407456D01*
X0631881Y0407436D01*
X0632040Y0407412D01*
X0632198Y0407385D01*
X0632356Y0407353D01*
X0632513Y0407317D01*
X0632668Y0407278D01*
X0632823Y0407235D01*
X0632977Y0407188D01*
X0633129Y0407137D01*
X0633280Y0407083D01*
X0633430Y0407024D01*
X0633578Y0406962D01*
X0633725Y0406897D01*
X0633870Y0406828D01*
X0634013Y0406755D01*
X0634155Y0406678D01*
X0634294Y0406599D01*
X0634432Y0406516D01*
X0634567Y0406429D01*
X0634700Y0406339D01*
X0634831Y0406246D01*
X0634960Y0406150D01*
X0635086Y0406050D01*
X0635210Y0405947D01*
X0635331Y0405842D01*
X0635449Y0405733D01*
X0635565Y0405622D01*
X0635678Y0405507D01*
X0635788Y0405390D01*
X0635895Y0405271D01*
X0635999Y0405148D01*
X0636100Y0405023D01*
X0636198Y0404896D01*
X0636293Y0404766D01*
X0636384Y0404634D01*
X0636473Y0404500D01*
X0636558Y0404363D01*
X0636639Y0404225D01*
X0636717Y0404084D01*
X0636792Y0403942D01*
X0636863Y0403798D01*
X0636930Y0403652D01*
X0636994Y0403504D01*
X0637054Y0403355D01*
X0637110Y0403205D01*
X0637163Y0403053D01*
X0637212Y0402900D01*
X0637257Y0402746D01*
X0637298Y0402591D01*
X0637336Y0402434D01*
X0637369Y0402277D01*
X0637399Y0402119D01*
X0637425Y0401961D01*
X0637446Y0401801D01*
X0637464Y0401642D01*
X0637478Y0401482D01*
X0637488Y0401321D01*
X0637494Y0401161D01*
X0637496Y0401000D01*
X0637494Y0400839D01*
X0637488Y0400679D01*
X0637478Y0400518D01*
X0637464Y0400358D01*
X0637446Y0400199D01*
X0637425Y0400039D01*
X0637399Y0399881D01*
X0637369Y0399723D01*
X0637336Y0399566D01*
X0637298Y0399409D01*
X0637257Y0399254D01*
X0637212Y0399100D01*
X0637163Y0398947D01*
X0637110Y0398795D01*
X0637054Y0398645D01*
X0636994Y0398496D01*
X0636930Y0398348D01*
X0636863Y0398202D01*
X0636792Y0398058D01*
X0636717Y0397916D01*
X0636639Y0397775D01*
X0636558Y0397637D01*
X0636473Y0397500D01*
X0636384Y0397366D01*
X0636293Y0397234D01*
X0636198Y0397104D01*
X0636100Y0396977D01*
X0635999Y0396852D01*
X0635895Y0396729D01*
X0635788Y0396610D01*
X0635678Y0396493D01*
X0635565Y0396378D01*
X0635449Y0396267D01*
X0635331Y0396158D01*
X0635210Y0396053D01*
X0635086Y0395950D01*
X0634960Y0395850D01*
X0634831Y0395754D01*
X0634700Y0395661D01*
X0634567Y0395571D01*
X0634432Y0395484D01*
X0634294Y0395401D01*
X0634155Y0395322D01*
X0634013Y0395245D01*
X0633870Y0395172D01*
X0633725Y0395103D01*
X0633578Y0395038D01*
X0633430Y0394976D01*
X0633280Y0394917D01*
X0633129Y0394863D01*
X0632977Y0394812D01*
X0632823Y0394765D01*
X0632668Y0394722D01*
X0632513Y0394683D01*
X0632356Y0394647D01*
X0632198Y0394615D01*
X0632040Y0394588D01*
X0631881Y0394564D01*
X0631722Y0394544D01*
X0631562Y0394528D01*
X0631401Y0394516D01*
X0631241Y0394508D01*
X0631080Y0394504D01*
X0630920Y0394504D01*
X0630759Y0394508D01*
X0630599Y0394516D01*
X0630438Y0394528D01*
X0630278Y0394544D01*
X0630119Y0394564D01*
X0629960Y0394588D01*
X0629802Y0394615D01*
X0629644Y0394647D01*
X0629487Y0394683D01*
X0629332Y0394722D01*
X0629177Y0394765D01*
X0629023Y0394812D01*
X0628871Y0394863D01*
X0628720Y0394917D01*
X0628570Y0394976D01*
X0628422Y0395038D01*
X0628275Y0395103D01*
X0628130Y0395172D01*
X0627987Y0395245D01*
X0627845Y0395322D01*
X0627706Y0395401D01*
X0627568Y0395484D01*
X0627433Y0395571D01*
X0627300Y0395661D01*
X0627169Y0395754D01*
X0627040Y0395850D01*
X0626914Y0395950D01*
X0626790Y0396053D01*
X0626669Y0396158D01*
X0626551Y0396267D01*
X0626435Y0396378D01*
X0626322Y0396493D01*
X0626212Y0396610D01*
X0626105Y0396729D01*
X0626001Y0396852D01*
X0625900Y0396977D01*
X0625802Y0397104D01*
X0625707Y0397234D01*
X0625616Y0397366D01*
X0625527Y0397500D01*
X0625442Y0397637D01*
X0625361Y0397775D01*
X0625283Y0397916D01*
X0625208Y0398058D01*
X0625137Y0398202D01*
X0625070Y0398348D01*
X0625006Y0398496D01*
X0624946Y0398645D01*
X0624890Y0398795D01*
X0624837Y0398947D01*
X0624788Y0399100D01*
X0624743Y0399254D01*
X0624702Y0399409D01*
X0624664Y0399566D01*
X0624631Y0399723D01*
X0624601Y0399881D01*
X0624575Y0400039D01*
X0624554Y0400199D01*
X0624536Y0400358D01*
X0624522Y0400518D01*
X0624512Y0400679D01*
X0624506Y0400839D01*
X0624504Y0401000D01*
X0624504Y0021000D02*
X0624506Y0021161D01*
X0624512Y0021321D01*
X0624522Y0021482D01*
X0624536Y0021642D01*
X0624554Y0021801D01*
X0624575Y0021961D01*
X0624601Y0022119D01*
X0624631Y0022277D01*
X0624664Y0022434D01*
X0624702Y0022591D01*
X0624743Y0022746D01*
X0624788Y0022900D01*
X0624837Y0023053D01*
X0624890Y0023205D01*
X0624946Y0023355D01*
X0625006Y0023504D01*
X0625070Y0023652D01*
X0625137Y0023798D01*
X0625208Y0023942D01*
X0625283Y0024084D01*
X0625361Y0024225D01*
X0625442Y0024363D01*
X0625527Y0024500D01*
X0625616Y0024634D01*
X0625707Y0024766D01*
X0625802Y0024896D01*
X0625900Y0025023D01*
X0626001Y0025148D01*
X0626105Y0025271D01*
X0626212Y0025390D01*
X0626322Y0025507D01*
X0626435Y0025622D01*
X0626551Y0025733D01*
X0626669Y0025842D01*
X0626790Y0025947D01*
X0626914Y0026050D01*
X0627040Y0026150D01*
X0627169Y0026246D01*
X0627300Y0026339D01*
X0627433Y0026429D01*
X0627568Y0026516D01*
X0627706Y0026599D01*
X0627845Y0026678D01*
X0627987Y0026755D01*
X0628130Y0026828D01*
X0628275Y0026897D01*
X0628422Y0026962D01*
X0628570Y0027024D01*
X0628720Y0027083D01*
X0628871Y0027137D01*
X0629023Y0027188D01*
X0629177Y0027235D01*
X0629332Y0027278D01*
X0629487Y0027317D01*
X0629644Y0027353D01*
X0629802Y0027385D01*
X0629960Y0027412D01*
X0630119Y0027436D01*
X0630278Y0027456D01*
X0630438Y0027472D01*
X0630599Y0027484D01*
X0630759Y0027492D01*
X0630920Y0027496D01*
X0631080Y0027496D01*
X0631241Y0027492D01*
X0631401Y0027484D01*
X0631562Y0027472D01*
X0631722Y0027456D01*
X0631881Y0027436D01*
X0632040Y0027412D01*
X0632198Y0027385D01*
X0632356Y0027353D01*
X0632513Y0027317D01*
X0632668Y0027278D01*
X0632823Y0027235D01*
X0632977Y0027188D01*
X0633129Y0027137D01*
X0633280Y0027083D01*
X0633430Y0027024D01*
X0633578Y0026962D01*
X0633725Y0026897D01*
X0633870Y0026828D01*
X0634013Y0026755D01*
X0634155Y0026678D01*
X0634294Y0026599D01*
X0634432Y0026516D01*
X0634567Y0026429D01*
X0634700Y0026339D01*
X0634831Y0026246D01*
X0634960Y0026150D01*
X0635086Y0026050D01*
X0635210Y0025947D01*
X0635331Y0025842D01*
X0635449Y0025733D01*
X0635565Y0025622D01*
X0635678Y0025507D01*
X0635788Y0025390D01*
X0635895Y0025271D01*
X0635999Y0025148D01*
X0636100Y0025023D01*
X0636198Y0024896D01*
X0636293Y0024766D01*
X0636384Y0024634D01*
X0636473Y0024500D01*
X0636558Y0024363D01*
X0636639Y0024225D01*
X0636717Y0024084D01*
X0636792Y0023942D01*
X0636863Y0023798D01*
X0636930Y0023652D01*
X0636994Y0023504D01*
X0637054Y0023355D01*
X0637110Y0023205D01*
X0637163Y0023053D01*
X0637212Y0022900D01*
X0637257Y0022746D01*
X0637298Y0022591D01*
X0637336Y0022434D01*
X0637369Y0022277D01*
X0637399Y0022119D01*
X0637425Y0021961D01*
X0637446Y0021801D01*
X0637464Y0021642D01*
X0637478Y0021482D01*
X0637488Y0021321D01*
X0637494Y0021161D01*
X0637496Y0021000D01*
X0637494Y0020839D01*
X0637488Y0020679D01*
X0637478Y0020518D01*
X0637464Y0020358D01*
X0637446Y0020199D01*
X0637425Y0020039D01*
X0637399Y0019881D01*
X0637369Y0019723D01*
X0637336Y0019566D01*
X0637298Y0019409D01*
X0637257Y0019254D01*
X0637212Y0019100D01*
X0637163Y0018947D01*
X0637110Y0018795D01*
X0637054Y0018645D01*
X0636994Y0018496D01*
X0636930Y0018348D01*
X0636863Y0018202D01*
X0636792Y0018058D01*
X0636717Y0017916D01*
X0636639Y0017775D01*
X0636558Y0017637D01*
X0636473Y0017500D01*
X0636384Y0017366D01*
X0636293Y0017234D01*
X0636198Y0017104D01*
X0636100Y0016977D01*
X0635999Y0016852D01*
X0635895Y0016729D01*
X0635788Y0016610D01*
X0635678Y0016493D01*
X0635565Y0016378D01*
X0635449Y0016267D01*
X0635331Y0016158D01*
X0635210Y0016053D01*
X0635086Y0015950D01*
X0634960Y0015850D01*
X0634831Y0015754D01*
X0634700Y0015661D01*
X0634567Y0015571D01*
X0634432Y0015484D01*
X0634294Y0015401D01*
X0634155Y0015322D01*
X0634013Y0015245D01*
X0633870Y0015172D01*
X0633725Y0015103D01*
X0633578Y0015038D01*
X0633430Y0014976D01*
X0633280Y0014917D01*
X0633129Y0014863D01*
X0632977Y0014812D01*
X0632823Y0014765D01*
X0632668Y0014722D01*
X0632513Y0014683D01*
X0632356Y0014647D01*
X0632198Y0014615D01*
X0632040Y0014588D01*
X0631881Y0014564D01*
X0631722Y0014544D01*
X0631562Y0014528D01*
X0631401Y0014516D01*
X0631241Y0014508D01*
X0631080Y0014504D01*
X0630920Y0014504D01*
X0630759Y0014508D01*
X0630599Y0014516D01*
X0630438Y0014528D01*
X0630278Y0014544D01*
X0630119Y0014564D01*
X0629960Y0014588D01*
X0629802Y0014615D01*
X0629644Y0014647D01*
X0629487Y0014683D01*
X0629332Y0014722D01*
X0629177Y0014765D01*
X0629023Y0014812D01*
X0628871Y0014863D01*
X0628720Y0014917D01*
X0628570Y0014976D01*
X0628422Y0015038D01*
X0628275Y0015103D01*
X0628130Y0015172D01*
X0627987Y0015245D01*
X0627845Y0015322D01*
X0627706Y0015401D01*
X0627568Y0015484D01*
X0627433Y0015571D01*
X0627300Y0015661D01*
X0627169Y0015754D01*
X0627040Y0015850D01*
X0626914Y0015950D01*
X0626790Y0016053D01*
X0626669Y0016158D01*
X0626551Y0016267D01*
X0626435Y0016378D01*
X0626322Y0016493D01*
X0626212Y0016610D01*
X0626105Y0016729D01*
X0626001Y0016852D01*
X0625900Y0016977D01*
X0625802Y0017104D01*
X0625707Y0017234D01*
X0625616Y0017366D01*
X0625527Y0017500D01*
X0625442Y0017637D01*
X0625361Y0017775D01*
X0625283Y0017916D01*
X0625208Y0018058D01*
X0625137Y0018202D01*
X0625070Y0018348D01*
X0625006Y0018496D01*
X0624946Y0018645D01*
X0624890Y0018795D01*
X0624837Y0018947D01*
X0624788Y0019100D01*
X0624743Y0019254D01*
X0624702Y0019409D01*
X0624664Y0019566D01*
X0624631Y0019723D01*
X0624601Y0019881D01*
X0624575Y0020039D01*
X0624554Y0020199D01*
X0624536Y0020358D01*
X0624522Y0020518D01*
X0624512Y0020679D01*
X0624506Y0020839D01*
X0624504Y0021000D01*
M02*
